<svg xmlns="http://www.w3.org/2000/svg" width="76.26" height="64.944" viewBox="0 0 76.26 64.944">
  <g id="Group_319" data-name="Group 319" transform="translate(-0.001 -37.987)">
    <path id="Path_387" data-name="Path 387" d="M15.705,71.756C12.286,65.833,3.569,64.741,3.2,64.7a1.49,1.49,0,0,0-1.543.891c-.147.342-3.559,8.437-.141,14.36.133.23.278.454.431.676A1.488,1.488,0,0,0,.859,81.848c-.052.361-1.208,8.732,3.3,13.617a19.772,19.772,0,0,0-1.911.863A1.49,1.49,0,0,0,1.5,97.941c.076.364,1.923,8.954,8.119,11.842a10.58,10.58,0,0,0,2.273.754,19.6,19.6,0,0,0-1.344,1.565,1.489,1.489,0,0,0,0,1.782c.223.3,5.527,7.3,12.365,7.3,4.96,0,9.113-3.685,11.1-5.822l2.333,3.06L32.5,123.234a1.49,1.49,0,0,0,2.326,1.861l3.384-4.23,3.205,4.2a1.49,1.49,0,0,0,2.369-1.806l-3.656-4.794,2.51-3.137a22.509,22.509,0,0,0,4.6,3.83,1.489,1.489,0,0,0,1.554-2.542,19.9,19.9,0,0,1-4.255-3.625c2.311-2.581,5.734-5.214,9.229-5.214s6.94,2.65,9.232,5.214a20.912,20.912,0,0,1-3.139,2.873,1.49,1.49,0,0,0,1.763,2.4,23.52,23.52,0,0,0,4.51-4.384,1.49,1.49,0,0,0,0-1.781,19.932,19.932,0,0,0-1.421-1.646,10.489,10.489,0,0,0,1.93-.672c6.2-2.889,8.044-11.479,8.12-11.843a1.49,1.49,0,0,0-.753-1.614,19.729,19.729,0,0,0-1.911-.863c4.51-4.885,3.354-13.256,3.3-13.617a1.489,1.489,0,0,0-1.088-1.223c.153-.222.3-.446.431-.676,3.419-5.923.006-14.018-.141-14.36a1.49,1.49,0,0,0-1.543-.891c-.369.043-9.086,1.136-12.505,7.059-2.483,4.3-1.377,9.722-.489,12.588-3.805,3.991-3.709,10.37-3.505,12.839a19.987,19.987,0,0,0-4.453,7.755c-5.906.958-10.335,6.676-10.687,7.142l-3.156,3.945-3-3.93c-.261-.349-4.937-6.475-11.137-7.219A19.926,19.926,0,0,0,19.7,97.184c.2-2.47.3-8.848-3.505-12.839.887-2.866,1.994-8.288-.49-12.588ZM69.716,93.648a7.429,7.429,0,0,1-.915.771,13.894,13.894,0,0,0-9.082.516c-.085.039-.169.082-.252.124.026-3.294.779-7.013,3.28-9.157,2.356-2.019,5.844-2.475,8.356-2.5.554-.006,1.048.01,1.453.033.126,2.272.04,7.336-2.839,10.215Zm-6.58-20.4c2.035-3.526,6.9-4.92,9.129-5.387.709,2.162,1.935,7.075-.1,10.6a8.057,8.057,0,0,1-1.64,1.975,17.609,17.609,0,0,0-7.912,1.953C62,79.96,61.473,76.125,63.136,73.246ZM60.978,97.635c3.142-1.465,7.375-.545,10.57.825-.654,2.175-2.457,6.9-6.164,8.625a8.671,8.671,0,0,1-3.612.747,14.4,14.4,0,0,0-6.5-2.92C56.347,102.034,58.193,98.935,60.978,97.635ZM4,67.856c2.224.462,7.084,1.848,9.128,5.39,1.663,2.879,1.135,6.714.522,9.141a17.61,17.61,0,0,0-7.912-1.953A8.059,8.059,0,0,1,4.1,78.459c-2.036-3.528-.808-8.443-.1-10.6ZM3.706,83.434c.405-.023.9-.039,1.453-.033,2.512.027,6,.483,8.356,2.5,2.5,2.144,3.254,5.86,3.28,9.157-.084-.042-.168-.084-.253-.124a13.892,13.892,0,0,0-9.081-.515,7.439,7.439,0,0,1-.915-.771C3.666,90.769,3.58,85.7,3.706,83.434Zm28.433,29.56c-1.518,1.7-5.159,5.213-9.229,5.213s-7.714-3.521-9.231-5.215c2.221-2.485,5.573-5.073,8.952-5.2.171.047,4.317-.593,9.508,5.205Zm-11.124-8.015a14.7,14.7,0,0,0-6.1,2.847,8.912,8.912,0,0,1-4.037-.741c-3.69-1.72-5.5-6.45-6.161-8.626a21.617,21.617,0,0,1,2.855-.995c2.124-.572,5.185-1.007,7.712.171a7.892,7.892,0,0,1,1.876,1.247l0,0,0,0A15.366,15.366,0,0,1,21.015,104.979Z" transform="translate(0 -22.723)" fill="#fff"/>
    <path id="Path_388" data-name="Path 388" d="M186.052,48.588a1.489,1.489,0,0,0-1.376-.919h-8.563l-3.457-8.74a1.489,1.489,0,0,0-2.77,0l-3.458,8.74h-8.562a1.489,1.489,0,0,0-1.053,2.543l6.964,6.966-3.465,8.662a1.489,1.489,0,0,0,2.149,1.83l8.809-5.285,8.808,5.285a1.489,1.489,0,0,0,2.149-1.83l-3.465-8.662,6.966-6.966a1.49,1.49,0,0,0,.323-1.623Zm-10.09,7.177a1.49,1.49,0,0,0-.33,1.606l2.187,5.469-5.783-3.47a1.49,1.49,0,0,0-1.533,0l-5.785,3.47,2.188-5.469a1.489,1.489,0,0,0-.33-1.606l-5.117-5.118h5.979a1.489,1.489,0,0,0,1.385-.941l2.446-6.181,2.445,6.181a1.49,1.49,0,0,0,1.385.942h5.98Z" transform="translate(-133.084)" fill="#fff"/>
    <ellipse id="Ellipse_8" data-name="Ellipse 8" cx="1.5" cy="2" rx="1.5" ry="2" transform="translate(53.001 94.987)" fill="#fff"/>
  </g>
</svg>
