<svg xmlns="http://www.w3.org/2000/svg" width="70.231" height="64.944" viewBox="0 0 70.231 64.944">
  <g id="Group_328" data-name="Group 328" transform="translate(0.001 -0.5)">
    <path id="Path_411" data-name="Path 411" d="M282.931,98.157a1.363,1.363,0,0,1-.267-.027,1.42,1.42,0,0,1-.257-.078,1.355,1.355,0,0,1-.237-.126,1.335,1.335,0,0,1-.209-.17,1.421,1.421,0,0,1-.17-.21,1.352,1.352,0,0,1-.2-.492,1.3,1.3,0,0,1,0-.536,1.377,1.377,0,0,1,.078-.257,1.457,1.457,0,0,1,.126-.237,1.385,1.385,0,0,1,.17-.209,1.335,1.335,0,0,1,.209-.17,1.353,1.353,0,0,1,.237-.126,1.379,1.379,0,0,1,.257-.078,1.349,1.349,0,0,1,.536,0,1.442,1.442,0,0,1,.257.078,1.421,1.421,0,0,1,.446.3,1.42,1.42,0,0,1,.17.209,1.457,1.457,0,0,1,.126.237,1.422,1.422,0,0,1,.078.257,1.412,1.412,0,0,1,0,.536,1.448,1.448,0,0,1-.078.257,1.4,1.4,0,0,1-.126.236,1.466,1.466,0,0,1-.171.21,1.3,1.3,0,0,1-.208.17,1.4,1.4,0,0,1-.236.126,1.487,1.487,0,0,1-.257.078A1.375,1.375,0,0,1,282.931,98.157Zm0,0" transform="translate(-242.938 -81.894)" fill="#fff"/>
    <path id="Path_412" data-name="Path 412" d="M56.693,126.271a1.372,1.372,0,0,1-.214-2.727l.589-.094a1.372,1.372,0,0,1,1.766-1.6l3.021.986a1.372,1.372,0,0,1-.21,2.659l-4.736.755a1.429,1.429,0,0,1-.218.017Zm0,0" transform="translate(-47.735 -104.649)" fill="#fff"/>
    <path id="Path_413" data-name="Path 413" d="M206.8,126.27a1.364,1.364,0,0,1-.218-.018l-4.736-.755a1.371,1.371,0,0,1-.21-2.658l3.021-.986a1.372,1.372,0,0,1,1.766,1.6l.589.094a1.372,1.372,0,0,1-.214,2.727Zm0,0" transform="translate(-173.16 -104.649)" fill="#fff"/>
    <path id="Path_414" data-name="Path 414" d="M108.266,195.787A8.046,8.046,0,0,1,100.911,191a1.372,1.372,0,0,1,2.51-1.109,5.3,5.3,0,0,0,9.69,0A1.372,1.372,0,1,1,115.621,191a8.045,8.045,0,0,1-7.355,4.792Zm0,0" transform="translate(-86.969 -162.703)" fill="#fff"/>
    <path id="Path_415" data-name="Path 415" d="M60.87,351.945a5.27,5.27,0,0,0-3.425,1.478,5.215,5.215,0,0,0-3.458-1.478,5.093,5.093,0,0,0-5.035,4.873,5.68,5.68,0,0,0,1.024,3.537c1.1,1.663,5.759,4.91,6.683,5.544a1.37,1.37,0,0,0,1.553,0c.921-.632,5.568-3.869,6.67-5.545a5.689,5.689,0,0,0,1.023-3.536,5.092,5.092,0,0,0-5.035-4.872Zm1.719,6.9a31.138,31.138,0,0,1-5.155,4.249,31.537,31.537,0,0,1-5.168-4.249,2.915,2.915,0,0,1-.575-1.882,2.379,2.379,0,0,1,2.295-2.276,3.445,3.445,0,0,1,2.3,1.537,1.372,1.372,0,0,0,2.264.031c.233-.331,1.31-1.568,2.319-1.568a2.379,2.379,0,0,1,2.3,2.276,2.917,2.917,0,0,1-.575,1.882Zm0,0" transform="translate(-42.231 -303.237)" fill="#fff"/>
    <path id="Path_416" data-name="Path 416" d="M48.932,22.841A21.337,21.337,0,0,0,28.259,39.009a18.561,18.561,0,1,1,7.283-29.1,1.372,1.372,0,1,0,2.106-1.759A21.291,21.291,0,1,0,27.73,42.114q-.095,1-.1,2.028a21.3,21.3,0,1,0,21.3-21.3Zm0,39.859A18.558,18.558,0,1,1,67.487,44.142,18.577,18.577,0,0,1,48.932,62.7Zm0,0" transform="translate(0 0)" fill="#fff"/>
    <path id="Path_417" data-name="Path 417" d="M258.158,289.143a1.372,1.372,0,0,1-.214-2.727l.589-.094a1.372,1.372,0,0,1,1.766-1.6l3.021.986a1.371,1.371,0,0,1-.21,2.658l-4.736.755A1.427,1.427,0,0,1,258.158,289.143Zm0,0" transform="translate(-221.565 -245.18)" fill="#fff"/>
    <path id="Path_418" data-name="Path 418" d="M408.262,289.141a1.366,1.366,0,0,1-.218-.018l-4.736-.755a1.372,1.372,0,0,1-.21-2.659l3.022-.985a1.372,1.372,0,0,1,1.766,1.6l.589.094a1.372,1.372,0,0,1-.214,2.727Zm0,0" transform="translate(-346.99 -245.179)" fill="#fff"/>
    <path id="Path_419" data-name="Path 419" d="M309.734,358.658a8.045,8.045,0,0,1-7.355-4.792,1.372,1.372,0,1,1,2.509-1.109,5.3,5.3,0,0,0,9.69,0,1.372,1.372,0,1,1,2.509,1.109A8.045,8.045,0,0,1,309.734,358.658Zm0,0" transform="translate(-260.802 -303.233)" fill="#fff"/>
    <path id="Path_420" data-name="Path 420" d="M409.2,50.475a1.372,1.372,0,0,1-.97-2.342l.782-.782a1.372,1.372,0,0,1,1.94,1.94l-.782.782A1.368,1.368,0,0,1,409.2,50.475Zm0,0" transform="translate(-351.887 -40.078)" fill="#fff"/>
    <path id="Path_421" data-name="Path 421" d="M311.372,4.837A1.372,1.372,0,0,1,310,3.466V1.872a1.372,1.372,0,1,1,2.743,0V3.466A1.372,1.372,0,0,1,311.372,4.837Zm0,0" transform="translate(-267.478 0)" fill="#fff"/>
    <path id="Path_422" data-name="Path 422" d="M451.317,153.239h-1.594a1.372,1.372,0,0,1,0-2.743h1.594a1.372,1.372,0,1,1,0,2.743Zm0,0" transform="translate(-386.852 -129.421)" fill="#fff"/>
  </g>
</svg>
