<svg xmlns="http://www.w3.org/2000/svg" width="62.99" height="62.527" viewBox="0 0 62.99 62.527">
  <g id="Group_329" data-name="Group 329" transform="translate(0 -0.345)">
    <path id="Path_423" data-name="Path 423" d="M116.046,27.426l0,.04a6.8,6.8,0,0,0,3.88,6.486l.026.013a4.571,4.571,0,0,1,2.07,1.991l.01.019a7.1,7.1,0,0,0,6.676,3.726l.042,0a4.862,4.862,0,0,1,2.874.747,7.287,7.287,0,0,0,7.728,0,4.862,4.862,0,0,1,2.874-.747l.042,0a7.108,7.108,0,0,0,6.678-3.73l.006-.013a4.579,4.579,0,0,1,2.076-2l.021-.01a6.8,6.8,0,0,0,3.88-6.486l0-.038a4.35,4.35,0,0,1,.757-2.7,6.689,6.689,0,0,0,0-7.564,4.35,4.35,0,0,1-.758-2.695l0-.04a6.8,6.8,0,0,0-3.882-6.487l-.023-.011a4.567,4.567,0,0,1-2.067-1.984l-.013-.026A7.109,7.109,0,0,0,142.268,2.2l-.043,0a4.858,4.858,0,0,1-2.873-.747h0a7.287,7.287,0,0,0-7.728,0,4.865,4.865,0,0,1-2.874.747l-.042,0a7.1,7.1,0,0,0-6.675,3.725l-.01.018a4.574,4.574,0,0,1-2.072,1.994l-.024.011a6.8,6.8,0,0,0-3.88,6.486l0,.038a4.347,4.347,0,0,1-.757,2.7,6.689,6.689,0,0,0,0,7.565,4.347,4.347,0,0,1,.756,2.7ZM117.22,18.5a6.705,6.705,0,0,0,1.168-4.16l0-.04a4.459,4.459,0,0,1,2.561-4.24l.02-.01A6.905,6.905,0,0,0,124.1,7.038l.011-.022a4.756,4.756,0,0,1,4.475-2.474l.041,0a7.185,7.185,0,0,0,4.25-1.1,4.929,4.929,0,0,1,5.228,0,7.2,7.2,0,0,0,4.25,1.105l.041,0a4.748,4.748,0,0,1,4.473,2.469l.015.029A6.9,6.9,0,0,0,150,10.047l.019.01a4.46,4.46,0,0,1,2.564,4.242l0,.042a6.7,6.7,0,0,0,1.169,4.159,4.331,4.331,0,0,1,0,4.9,6.711,6.711,0,0,0-1.168,4.16l0,.04a4.461,4.461,0,0,1-2.564,4.243l-.017.008a6.913,6.913,0,0,0-3.131,3.015l-.009.017a4.753,4.753,0,0,1-4.475,2.474l-.041,0A7.2,7.2,0,0,0,138.1,38.46a4.929,4.929,0,0,1-5.227,0,7.187,7.187,0,0,0-3.853-1.116q-.2,0-.4.011l-.041,0a4.75,4.75,0,0,1-4.476-2.476l-.012-.022a6.9,6.9,0,0,0-3.123-3.006l-.022-.011a4.458,4.458,0,0,1-2.564-4.242l0-.042a6.71,6.71,0,0,0-1.169-4.159,4.331,4.331,0,0,1,0-4.9Zm0,0" transform="translate(-97.388)" fill="#fff"/>
    <path id="Path_424" data-name="Path 424" d="M205.056,81.36a1.173,1.173,0,0,0,1.615-.374L220.564,58.73a1.173,1.173,0,1,0-1.99-1.242L204.682,79.744A1.173,1.173,0,0,0,205.056,81.36Zm0,0" transform="translate(-174.524 -48.287)" fill="#fff"/>
    <path id="Path_425" data-name="Path 425" d="M186.613,72.53c2.856,0,5.179-2.65,5.179-5.906s-2.324-5.906-5.179-5.906-5.179,2.649-5.179,5.906S183.757,72.53,186.613,72.53Zm0-9.466c1.563,0,2.834,1.6,2.834,3.56s-1.271,3.561-2.834,3.561-2.833-1.6-2.833-3.561S185.051,63.064,186.613,63.064Zm0,0" transform="translate(-154.836 -51.523)" fill="#fff"/>
    <path id="Path_426" data-name="Path 426" d="M267.684,146.421c0,3.257,2.323,5.906,5.179,5.906s5.18-2.65,5.18-5.906-2.323-5.906-5.179-5.906S267.684,143.164,267.684,146.421Zm8.013,0c0,1.963-1.271,3.56-2.834,3.56s-2.833-1.6-2.833-3.56,1.271-3.56,2.833-3.56S275.7,144.457,275.7,146.421Zm0,0" transform="translate(-228.443 -119.622)" fill="#fff"/>
    <path id="Path_427" data-name="Path 427" d="M62.839,272.562a5.924,5.924,0,0,0-7.823-2.384l-9.187,4.341a7.483,7.483,0,0,0-6.379-3.936l-8.481-.234a8.965,8.965,0,0,1-3.854-1l-.863-.447a15.221,15.221,0,0,0-14.1.015l.054-1.955a1.173,1.173,0,0,0-1.14-1.2l-9.3-.256a1.172,1.172,0,0,0-1.2,1.14L0,287.054a1.173,1.173,0,0,0,1.14,1.2l9.3.256h.033a1.174,1.174,0,0,0,1.172-1.141l.026-.976,2.416-1.294a4.145,4.145,0,0,1,3.093-.338l14.426,4.049c.025.007.05.013.076.019a15.445,15.445,0,0,0,3.171.327,15.647,15.647,0,0,0,6.537-1.426,1.151,1.151,0,0,0,.145-.079l20.917-13.531a1.172,1.172,0,0,0,.384-1.562ZM2.378,285.946l.5-18.063,6.955.191-.5,18.063Zm37.957-.308a13.292,13.292,0,0,1-8.131.907l-14.388-4.038a6.482,6.482,0,0,0-4.834.529l-1.235.661.331-12.01a12.89,12.89,0,0,1,13.1-.7l.863.447a11.32,11.32,0,0,0,4.869,1.258l8.481.234a5.143,5.143,0,0,1,4.889,4.1l-12.632-.348a1.173,1.173,0,0,0-.064,2.345l13.941.384h.033a1.174,1.174,0,0,0,1.172-1.141,7.483,7.483,0,0,0-.113-1.521l9.421-4.452.027-.013a3.582,3.582,0,0,1,4.052.567Zm0,0" transform="translate(0 -226.289)" fill="#fff"/>
  </g>
</svg>
