<svg xmlns="http://www.w3.org/2000/svg" width="65.639" height="66.244" viewBox="0 0 65.639 66.244">
  <g id="Group_326" data-name="Group 326" transform="translate(38.466 74.239) rotate(-150)">
    <path id="Path_400" data-name="Path 400" d="M153.256,6.333a1.077,1.077,0,0,1-.762-1.839,15.385,15.385,0,0,1,21.735,0,1.077,1.077,0,0,1-1.523,1.523,13.23,13.23,0,0,0-18.688,0,1.074,1.074,0,0,1-.762.315Z" transform="translate(-136.189)" fill="#fff"/>
    <path id="Path_401" data-name="Path 401" d="M190.673,57.558a1.077,1.077,0,0,1-.762-1.839,9.679,9.679,0,0,1,13.674,0,1.077,1.077,0,0,1-1.523,1.523,7.524,7.524,0,0,0-10.627,0,1.074,1.074,0,0,1-.762.315Z" transform="translate(-169.575 -47.194)" fill="#fff"/>
    <path id="Path_402" data-name="Path 402" d="M228.089,108.785a1.077,1.077,0,0,1-.762-1.839,3.974,3.974,0,0,1,5.614,0,1.077,1.077,0,0,1-1.523,1.523,1.817,1.817,0,0,0-2.567,0A1.074,1.074,0,0,1,228.089,108.785Z" transform="translate(-202.961 -94.566)" fill="#fff"/>
    <path id="Path_403" data-name="Path 403" d="M310.571,449.712a1.077,1.077,0,1,1,1.062-.9,1.087,1.087,0,0,1-1.062.9Z" transform="translate(-276.664 -400.154)" fill="#fff"/>
    <path id="Path_404" data-name="Path 404" d="M53.285,177.222H39.222a1.058,1.058,0,0,0-1.061,1.054V181.9H34.973v-4.674a1.058,1.058,0,0,0-1.061-1.054H31.985v-3.422a6.447,6.447,0,0,0,4.05-5.967V165.2a1.058,1.058,0,0,0-1.061-1.054H30.262a3.25,3.25,0,0,0,.22-1.177,3.308,3.308,0,0,0-6.616,0,3.248,3.248,0,0,0,.22,1.177H19.373a1.058,1.058,0,0,0-1.061,1.054v1.575a6.447,6.447,0,0,0,4.05,5.967v3.422H20.435a1.058,1.058,0,0,0-1.061,1.054V181.9H16.186v-3.619a1.058,1.058,0,0,0-1.061-1.054H1.061A1.058,1.058,0,0,0,0,178.277v16.447a1.058,1.058,0,0,0,1.061,1.054H15.125a1.058,1.058,0,0,0,1.061-1.054V184h3.188v11.774a1.058,1.058,0,0,0,1.061,1.054H33.912a1.054,1.054,0,1,0,0-2.109H21.5V178.276H32.85v8.067a1.061,1.061,0,0,0,2.123,0V184h3.188v10.719a1.058,1.058,0,0,0,1.061,1.054H53.285a1.058,1.058,0,0,0,1.061-1.054V178.277A1.058,1.058,0,0,0,53.285,177.222Zm-39.222,8.223H9.155v-6.115h4.909v6.115Zm-11.94-6.115H7.032v6.115H2.123Zm0,8.223H7.032v6.115H2.123Zm11.94,6.115H9.155v-6.115h4.909v6.115Zm11.925-30.7a1.185,1.185,0,1,1,1.185,1.177,1.182,1.182,0,0,1-1.185-1.177Zm-5.554,3.806v-.52H33.912v.52a4.347,4.347,0,0,1-4.357,4.328H24.791a4.347,4.347,0,0,1-4.357-4.328Zm4.05,9.389v-2.96q.153.007.307.007h4.764q.154,0,.307-.007v2.96Zm27.739,9.278H47.315v-6.115h4.909Zm-11.94-6.115h4.909v6.115H40.284Zm0,8.223h4.909v6.115H40.284Zm11.94,6.115H47.315v-6.115h4.909Z" transform="translate(0 -142.486)" fill="#fff"/>
  </g>
</svg>
